SplineFontDB: 3.2
FontName: wwise-regular-italics
FullName: wwise Regular Italics
FamilyName: wwise
Weight: Regular
Copyright: Copyright (c) 2022, willi
UComments: "Glyphs are created in Figma (https://figma.com/). This font was generated by FontForge (https://fontforge.org)."
Version: 001.000
DefaultBaseFilename: 400-regular-italics
ItalicAngle: 0
UnderlinePosition: -204
UnderlineWidth: 102
Ascent: 1638
Descent: 410
InvalidEm: 0
LayerCount: 2
Layer: 0 0 "Back" 1
Layer: 1 0 "Fore" 0
XUID: [1021 86 -766541239 4208]
StyleMap: 0x0040
FSType: 0
OS2Version: 0
OS2_WeightWidthSlopeOnly: 0
OS2_UseTypoMetrics: 1
CreationTime: 1671043445
ModificationTime: 1671129792
PfmFamily: 33
TTFWeight: 400
TTFWidth: 5
LineGap: 184
VLineGap: 0
OS2TypoAscent: 0
OS2TypoAOffset: 1
OS2TypoDescent: 0
OS2TypoDOffset: 1
OS2TypoLinegap: 184
OS2WinAscent: 0
OS2WinAOffset: 1
OS2WinDescent: 0
OS2WinDOffset: 1
HheadAscent: 0
HheadAOffset: 1
HheadDescent: 0
HheadDOffset: 1
OS2Vendor: 'PfEd'
Lookup: 258 0 0 "Latin kerning" { "lower-apos" [307,30,0] "letter-apos" [307,30,0] "-x" [307,30,0] "f-" [307,30,0] "r-" [307,30,0] } ['kern' ('DFLT' <'dflt' > 'latn' <'dflt' > ) ]
MarkAttachClasses: 1
DEI: 91125
KernClass2: 2 6 "r-"
 1 r
 1 o
 1 e
 1 d
 1 g
 1 q
 0 {} 0 {} 0 {} 0 {} 0 {} 0 {} 0 {} -128 {} -128 {} -127 {} -127 {} -128 {}
KernClass2: 2 5 "f-"
 1 f
 1 o
 1 e
 1 d
 1 q
 0 {} 0 {} -80 {} 0 {} 0 {} 0 {} -133 {} -133 {} -162 {} -133 {}
KernClass2: 5 2 "-x"
 1 o
 1 e
 1 b
 1 p
 1 x
 0 {} 0 {} -80 {} -107 {} 0 {} -91 {} 0 {} -106 {} 0 {} -107 {}
KernClass2: 1 1 "letter-apos"
 0 {}
KernClass2: 1 1 "lower-apos"
 0 {}

StartChar: A
Encoding: 65 65 0
Width: 1383
VWidth: 2457
Flags: HW
HStem: -0 21G<17 189.098 1112.15 1275> 491 147<563 1024> 1454 20G<893.938 1068.84>
DStem2: 17 -0 177 -0 0.516459 0.856312<82.6335 656.471 828.314 1553.24> 1066 1474 937 1259 0.140387 -0.990097<194.761 821.825 970.317 1466.28>
LayerCount: 2
Fore
SplineSet
906 1474 m 1
 1066 1474 l 1
 1275 0 l 1
 1115 0 l 1
 1045 491 l 1
 474 491 l 1
 177 0 l 1
 17 0 l 1
 906 1474 l 1
937 1259 m 1
 563 638 l 1
 1024 638 l 1
 937 1259 l 1
EndSplineSet
EndChar

StartChar: B
Encoding: 66 66 1
Width: 1203
VWidth: 2457
Flags: HW
LayerCount: 2
Fore
SplineSet
363 1474 m 1xf4
 523 1474 l 1
 523 1474 637 1474 866 1474 c 0
 1095 1474 1215 1302 1158 1056 c 0xf8
 1101 810 924 737 833 737 c 1
 856 737 l 2
 947 737 1141 687 1079 417 c 0
 1017 147 800 0 571 0 c 2
 183 0 l 1
 23 0 l 1
 363 1474 l 1xf4
370 811 m 1
 370 811 644 811 713 811 c 0
 782 811 953 859 998 1056 c 0
 1043 1253 923 1327 832 1327 c 0
 741 1327 489 1327 489 1327 c 1
 370 811 l 1
679 663 m 0
 588 663 336 663 336 663 c 1
 217 147 l 1
 217 147 514 147 605 147 c 0
 696 147 868 196 919 417 c 0xf4
 970 638 770 663 679 663 c 0
EndSplineSet
EndChar

StartChar: C
Encoding: 67 67 2
Width: 1229
VWidth: 2457
Flags: HW
HStem: -25 147<381.881 702.789> 1351 148<651.156 987.042>
LayerCount: 2
Fore
SplineSet
82.3818359375 737 m 0
 156.381835938 1056 441.381835938 1499 852.381835938 1499 c 0
 1031.38183594 1499 1144.38183594 1395 1213.38183594 1279 c 2
 1116.38183594 1155 l 1
 1053.38183594 1278 967.381835938 1351 818.381835938 1351 c 0
 498.381835938 1351 287.381835938 934 242.381835938 737 c 0
 197.381835938 540 215.381835938 122 535.381835938 122 c 0
 684.381835938 122 803.381835938 196 923.381835938 319 c 1
 963.381835938 195 l 2
 840.381835938 79 680.381835938 -25 501.381835938 -25 c 0
 90.3818359375 -25 8.3818359375 418 82.3818359375 737 c 0
EndSplineSet
EndChar

StartChar: D
Encoding: 68 68 3
Width: 1307
VWidth: 2457
Flags: HW
LayerCount: 2
Fore
SplineSet
363 1474 m 1
 866 1474 l 2
 1163 1474 1329 1106 1244 737 c 0
 1159 368 822 0 525 0 c 2
 23 0 l 1
 363 1474 l 1
217 147 m 1
 560 147 l 2
 651 147 976 270 1084 737 c 0
 1192 1204 923 1327 832 1327 c 2
 489 1327 l 1
 217 147 l 1
EndSplineSet
EndChar

StartChar: E
Encoding: 69 69 4
Width: 1252
VWidth: 2457
Flags: HW
HStem: -0 147<217 937> 663 148<370 953> 1327 147<489 1198>
DStem2: 23 -0 217 147 0.224763 0.974413<186.843 716.387 868.242 1397.79>
CounterMasks: 1 e0
LayerCount: 2
Fore
SplineSet
23 0 m 1
 363 1474 l 1
 1232 1474 l 1
 1198 1327 l 1
 489 1327 l 1
 370 811 l 1
 1033 811 l 1
 953 663 l 1
 336 663 l 1
 217 147 l 1
 971 147 l 1
 937 0 l 1
 23 0 l 1
EndSplineSet
EndChar

StartChar: F
Encoding: 70 70 5
Width: 1252
VWidth: 2457
Flags: HW
LayerCount: 2
Fore
SplineSet
23 0 m 1
 363 1474 l 1
 1232 1474 l 1
 1198 1327 l 1
 489 1327 l 1
 370 811 l 1
 1033 811 l 1
 953 663 l 1
 336 663 l 1
 183 0 l 1
 23 0 l 1
EndSplineSet
EndChar

StartChar: G
Encoding: 71 71 6
Width: 1300
VWidth: 2457
Flags: HW
LayerCount: 2
Fore
SplineSet
85.4111328125 737 m 0
 170.411132812 1106 444.411132812 1499 901.411132812 1499 c 0
 1080.41113281 1499 1216.41113281 1395 1285.41113281 1279 c 2
 1187.41113281 1155 l 1
 1124.41113281 1278 1016.41113281 1351 867.411132812 1351 c 0
 501.411132812 1351 302.411132812 983 245.411132812 737 c 0
 188.411132812 491 217.411132812 122 583.411132812 122 c 0
 732.411132812 122 909.411132812 245 909.411132812 245 c 1
 1005.41113281 663 l 1
 662.411132812 663 l 1
 742.411132812 811 l 1
 1199.41113281 811 l 1
 1052.41113281 172 l 2
 929.411132812 56 728.411132812 -25 549.411132812 -25 c 0
 92.4111328125 -25 0.4111328125 368 85.4111328125 737 c 0
EndSplineSet
EndChar

StartChar: H
Encoding: 72 72 7
Width: 1387
VWidth: 2457
Flags: HW
LayerCount: 2
Fore
SplineSet
23 0 m 1
 363 1474 l 1
 523 1474 l 1
 370 811 l 1
 1056 811 l 1
 1209 1474 l 1
 1369 1474 l 1
 1028 0 l 1
 868 0 l 1
 1022 663 l 1
 336 663 l 1
 183 0 l 1
 23 0 l 1
EndSplineSet
EndChar

StartChar: I
Encoding: 73 73 8
Width: 1085
VWidth: 2457
Flags: HW
HStem: -0 147<53 328 488 728> 1327 147<360 600 760 989>
DStem2: 328 147 488 147 0.224618 0.974447<35.9389 1210.94>
LayerCount: 2
Fore
SplineSet
762 147 m 1
 728 0 l 1
 19 0 l 1
 53 147 l 1
 328 147 l 1
 600 1327 l 1
 326 1327 l 1
 360 1474 l 1
 1068 1474 l 1
 989 1327 l 1
 760 1327 l 1
 488 147 l 1
 762 147 l 1
EndSplineSet
EndChar

StartChar: J
Encoding: 74 74 9
Width: 1085
VWidth: 2457
Flags: HW
LayerCount: 2
Fore
SplineSet
762 147 m 1
 728 0 l 1
 19 0 l 1
 53 147 l 1
 328 147 l 1
 600 1327 l 1
 326 1327 l 1
 360 1474 l 1
 1068 1474 l 1
 989 1327 l 1
 760 1327 l 1
 488 147 l 1
 762 147 l 1
EndSplineSet
EndChar

StartChar: K
Encoding: 75 75 10
Width: 1475
VWidth: 2457
Flags: HW
LayerCount: 2
Fore
SplineSet
23 0 m 1
 363 1474 l 1
 523 1474 l 1
 347 712 l 1
 574 903 l 1
 575 909 l 1
 578 906 l 1
 1254 1474 l 1
 1460 1474 l 1
 652 791 l 1
 1165 0 l 1
 960 0 l 1
 526 685 l 1
 296 491 l 1
 183 0 l 1
 23 0 l 1
EndSplineSet
EndChar

StartChar: L
Encoding: 76 76 11
Width: 1057
VWidth: 2457
Flags: HW
LayerCount: 2
Fore
SplineSet
23 0 m 1
 363 1474 l 1
 523 1474 l 1
 217 147 l 1
 971 147 l 1
 937 0 l 1
 23 0 l 1
EndSplineSet
EndChar

StartChar: M
Encoding: 77 77 12
Width: 1752
VWidth: 2457
Flags: HW
LayerCount: 2
Fore
SplineSet
363 1474 m 1
 500 1474 l 1
 827 516 l 1
 1597 1474 l 1
 1734 1474 l 1
 1394 0 l 1
 1234 0 l 1
 1501 1155 l 1
 862 368 l 1
 725 368 l 1
 449 1155 l 1
 183 0 l 1
 23 0 l 1
 363 1474 l 1
EndSplineSet
EndChar

StartChar: N
Encoding: 78 78 13
Width: 1524
VWidth: 2457
Flags: HW
HStem: -0 21G<23 187.614 1018.28 1169.63> 1454 20G<358.387 509.729 1341.39 1506>
DStem2: 23 -0 183 -0 0.224763 0.974413<35.9621 1245.93> 500 1474 455 1179 0.437432 -0.899251<245.595 1312.2> 1074 294 1165 -0 0.22539 0.974269<0 1210.94>
LayerCount: 2
Fore
SplineSet
23 0 m 5
 363 1474 l 5
 500 1474 l 5
 1074 294 l 5
 1346 1474 l 5
 1506 1474 l 5
 1165 0 l 5
 1028 0 l 5
 455 1179 l 5
 183 0 l 5
 23 0 l 5
EndSplineSet
EndChar

StartChar: O
Encoding: 79 79 14
Width: 1336
VWidth: 2457
Flags: HW
HStem: -25 147<381.881 702.608> 1351 148<651.156 971.883>
LayerCount: 2
Fore
SplineSet
82.3818359375 737 m 0
 156.381835938 1056 441.381835938 1499 852.381835938 1499 c 0
 1263.38183594 1499 1345.38183594 1056 1271.38183594 737 c 0
 1197.38183594 418 912.381835938 -25 501.381835938 -25 c 0
 90.3818359375 -25 8.3818359375 418 82.3818359375 737 c 0
818.381835938 1351 m 0
 498.381835938 1351 287.381835938 934 242.381835938 737 c 0
 197.381835938 540 215.381835938 122 535.381835938 122 c 0
 855.381835938 122 1066.38183594 540 1111.38183594 737 c 0
 1156.38183594 934 1138.38183594 1351 818.381835938 1351 c 0
EndSplineSet
EndChar

StartChar: P
Encoding: 80 80 15
Width: 1192
VWidth: 2457
Flags: HW
LayerCount: 2
Fore
SplineSet
23 0 m 1
 363 1474 l 1
 523 1474 l 1
 866 1474 l 2
 1095 1474 1215 1302 1158 1056 c 0
 1101 810 862 663 679 663 c 2
 336 663 l 1
 217 147 l 1
 183 0 l 1
 23 0 l 1
713 811 m 2
 782 811 953 859 998 1056 c 0
 1043 1253 923 1327 832 1327 c 2
 489 1327 l 1
 370 811 l 1
 713 811 l 2
EndSplineSet
EndChar

StartChar: Q
Encoding: 81 81 16
Width: 1335
VWidth: 2457
Flags: HW
LayerCount: 2
Fore
SplineSet
851.381835938 1499 m 0x78
 1262.38183594 1499 1344.38183594 1056 1270.38183594 737 c 0
 1220.38183594 522 1075.38183594 250 859.381835938 96 c 0
 874.381835938 31 948.381835938 0 985.381835938 0 c 2
 1145.38183594 0 l 1
 1066.38183594 -148 l 1
 951.381835938 -148 l 2xb8
 818.381835938 -148 731.381835938 -75 693.381835938 9 c 0
 632.381835938 -13 568.381835938 -25 500.381835938 -25 c 0
 89.3818359375 -25 7.3818359375 418 81.3818359375 737 c 0
 155.381835938 1056 440.381835938 1499 851.381835938 1499 c 0x78
241.381835938 737 m 0
 196.381835938 540 214.381835938 122 534.381835938 122 c 0x78
 854.381835938 122 1065.38183594 540 1110.38183594 737 c 0
 1155.38183594 934 1137.38183594 1351 817.381835938 1351 c 0
 497.381835938 1351 286.381835938 934 241.381835938 737 c 0
EndSplineSet
EndChar

StartChar: R
Encoding: 82 82 17
Width: 1190
VWidth: 2457
Flags: HW
LayerCount: 2
Fore
SplineSet
363 1474 m 1
 523 1474 l 1
 866 1474 l 2
 1095 1474 1215 1302 1158 1056 c 0
 1104 823 886 679 708 664 c 1
 960 0 l 1
 777 0 l 1
 519 663 l 1
 336 663 l 1
 217 147 l 1
 183 0 l 1
 23 0 l 1
 363 1474 l 1
370 811 m 1
 713 811 l 2
 782 811 953 859 998 1056 c 0
 1043 1253 923 1327 832 1327 c 2
 489 1327 l 1
 370 811 l 1
EndSplineSet
EndChar

StartChar: S
Encoding: 83 83 18
Width: 1286
VWidth: 2457
Flags: HW
HStem: -25 147<347.509 780.497> 1351 148<624.876 984.618>
LayerCount: 2
Fore
SplineSet
266 1081 m 0
 289 1183 404 1499 842 1499 c 0
 1182 1499 1271 1277 1271 1277 c 1
 1146 1130 l 1
 1146 1130 1066 1351 808 1351 c 0
 665 1351 470 1270 426 1081 c 0
 382 892 543 838 684 811 c 0
 825 784 1195 749 1113 393 c 0
 1063 175 929 -25 491 -25 c 0
 156 -25 16 196 16 196 c 1
 142 344 l 1
 142 344 286 122 525 122 c 0
 744 122 903 177 953 393 c 0
 1003 609 760 639 650 663 c 0
 540 687 184 725 266 1081 c 0
EndSplineSet
EndChar

StartChar: T
Encoding: 84 84 19
Width: 1087
VWidth: 2457
Flags: HW
LayerCount: 2
Fore
SplineSet
623 1327 m 5
 317 0 l 5
 157 0 l 5
 463 1327 l 5
 52 1327 l 5
 86 1474 l 5
 1069 1474 l 5
 989 1327 l 5
 623 1327 l 5
EndSplineSet
EndChar

StartChar: U
Encoding: 85 85 20
Width: 1349
VWidth: 2457
Flags: HW
HStem: -25 147<330.529 676.839> 1454 20G<275.441 440.066 1166.46 1331.07>
DStem2: 64.066 540 224.066 540 0.225317 0.974286<-167.439 958.651> 956.066 540 1116.07 540 0.224326 0.974514<-213.427 958.426>
LayerCount: 2
Fore
SplineSet
64.06640625 540 m 2
 280.06640625 1474 l 1
 440.06640625 1474 l 1
 224.06640625 540 l 2
 184.06640625 368 220.06640625 122 494.06640625 122 c 0
 768.06640625 122 916.06640625 368 956.06640625 540 c 2
 1171.06640625 1474 l 1
 1331.06640625 1474 l 1
 1116.06640625 540 l 2
 1042.06640625 221 757.06640625 -25 460.06640625 -25 c 0
 163.06640625 -25 -9.93359375 221 64.06640625 540 c 2
EndSplineSet
EndChar

StartChar: V
Encoding: 86 86 21
Width: 1292
VWidth: 2457
Flags: HW
LayerCount: 2
Fore
SplineSet
269 1474 m 1
 404 251 l 1
 1104 1474 l 1
 1275 1474 l 1
 432 0 l 1
 260 0 l 1
 98 1474 l 1
 269 1474 l 1
EndSplineSet
EndChar

StartChar: W
Encoding: 87 87 22
Width: 1864
VWidth: 2457
Flags: HW
LayerCount: 2
Fore
SplineSet
281 1474 m 1
 370 251 l 1
 802 1105 l 1
 985 1105 l 1
 1022 251 l 1
 1676 1474 l 1
 1847 1474 l 1
 1049 0 l 1
 878 0 l 1
 837 860 l 1
 398 0 l 1
 227 0 l 1
 110 1474 l 1
 281 1474 l 1
EndSplineSet
EndChar

StartChar: X
Encoding: 88 88 23
Width: 1366
VWidth: 2457
Flags: HW
LayerCount: 2
Fore
SplineSet
527 1474 m 1
 718 890 l 1
 1179 1474 l 1
 1350 1474 l 1
 769 737 l 1
 1010 0 l 1
 838 0 l 1
 647 583 l 1
 187 0 l 1
 16 0 l 1
 597 737 l 1
 356 1474 l 1
 527 1474 l 1
EndSplineSet
EndChar

StartChar: Y
Encoding: 89 89 24
Width: 1065
VWidth: 2457
Flags: HW
HStem: -0 21G<136 300.622> 1454 20G<65 242.44 872.969 1048>
DStem2: 237 1474 65 1474 0.280844 -0.959753<0 658.989> 136 -0 296 -0 0.22517 0.97432<36.0272 706.134> 410 838 455 688 0.602273 0.79829<0 795.599>
LayerCount: 2
Fore
SplineSet
65 1474 m 1
 237 1474 l 1
 410 838 l 1
 888 1474 l 1
 1048 1474 l 1
 455 688 l 1
 296 0 l 1
 136 0 l 1
 295 688 l 1
 65 1474 l 1
EndSplineSet
EndChar

StartChar: Z
Encoding: 90 90 25
Width: 1293
VWidth: 2457
Flags: HW
HStem: -0 172<265 933> 1302 172<360 1028>
DStem2: 48 122 265 172 0.638901 0.769289<177.106 1533.88>
LayerCount: 2
Fore
SplineSet
320 1302 m 1
 360 1474 l 1
 1274 1474 l 1
 1245 1351 l 1
 265 172 l 1
 973 172 l 1
 933 0 l 1
 19 0 l 1
 48 122 l 1
 1028 1302 l 1
 320 1302 l 1
EndSplineSet
EndChar

StartChar: a
Encoding: 97 97 26
Width: 1018
VWidth: 2457
Flags: HW
HStem: -25 147<263.98 503.93> -0 21G<645.602 759.214> 857 148<417.021 660.299> 960 20G<898.038 975.99>
VStem: 645.602 109<0 62.165>
DStem2: 714.602 490 754.602 -0 0.224714 0.974425<-230.294 210.05 329.644 463.061>
LayerCount: 2
Fore
SplineSet
645.6015625 0 m 1x58
 646.6015625 177 l 1
 579.6015625 57 483.6015625 -25 341.6015625 -25 c 0
 86.6015625 -25 -1.3984375 233 57.6015625 490 c 0
 116.6015625 747 324.6015625 1005 579.6015625 1005 c 0xa8
 718.6015625 1005 775.6015625 926 789.6015625 811 c 1
 819.6015625 941 l 0
 980.6015625 980 l 0
 754.6015625 0 l 1
 645.6015625 0 l 1x58
714.6015625 490 m 0
 762.6015625 697 694.6015625 857 547.6015625 857 c 0
 400.6015625 857 258.6015625 697 210.6015625 490 c 0
 162.6015625 283 230.6015625 122 377.6015625 122 c 0
 524.6015625 122 666.6015625 283 714.6015625 490 c 0
EndSplineSet
EndChar

StartChar: b
Encoding: 98 98 27
Width: 1026
VWidth: 2457
Flags: HW
LayerCount: 2
Fore
SplineSet
132 0 m 1x76
 23 0 l 1x76
 364 1474 l 1
 517 1474 l 1
 363 811 l 1
 430 926 524 1005 663 1005 c 0
 917 1005 1006 747 947 490 c 0
 888 233 679 -25 425 -25 c 0xba
 283 -25 226 57 214 177 c 1
 132 0 l 1x76
289 490 m 0xba
 241 283 310 122 457 122 c 0
 604 122 746 283 794 490 c 0
 842 697 773 857 626 857 c 0
 479 857 337 697 289 490 c 0xba
EndSplineSet
EndChar

StartChar: c
Encoding: 99 99 28
Width: 842
VWidth: 2457
Flags: HW
HStem: -25 147<263.635 502.45> 857 148<416.791 675.203>
LayerCount: 2
Fore
SplineSet
578.609375 1005 m 0
 693.609375 1005 769.609375 932 819.609375 855 c 2
 730.609375 742 l 1
 701.609375 809 625.609375 857 547.609375 857 c 0
 400.609375 857 258.609375 697 210.609375 490 c 0
 162.609375 283 230.609375 122 377.609375 122 c 0
 455.609375 122 554.609375 170 614.609375 237 c 1
 651.609375 125 l 2
 565.609375 48 455.609375 -25 340.609375 -25 c 0
 86.609375 -25 -1.390625 233 57.609375 490 c 0
 116.609375 747 324.609375 1005 578.609375 1005 c 0
EndSplineSet
EndChar

StartChar: d
Encoding: 100 100 29
Width: 1112
VWidth: 2457
Flags: HW
LayerCount: 2
Fore
SplineSet
644.6015625 0 m 1x7a
 645.6015625 177 l 1
 578.6015625 57 482.6015625 -25 340.6015625 -25 c 0
 85.6015625 -25 -2.3984375 233 56.6015625 490 c 0
 115.6015625 747 323.6015625 1005 578.6015625 1005 c 0
 717.6015625 1005 774.6015625 926 788.6015625 811 c 1
 941.6015625 1474 l 1
 1093.6015625 1474 l 1xbc
 753.6015625 0 l 1
 644.6015625 0 l 1x7a
713.6015625 490 m 0
 761.6015625 697 693.6015625 857 546.6015625 857 c 0
 399.6015625 857 257.6015625 697 209.6015625 490 c 0
 161.6015625 283 229.6015625 122 376.6015625 122 c 0
 523.6015625 122 665.6015625 283 713.6015625 490 c 0
EndSplineSet
EndChar

StartChar: e
Encoding: 101 101 30
Width: 940
VWidth: 2948
Flags: HW
HStem: -25 147<263.503 549.353> 857 148<416.393 658.717>
DStem2: 217.61 517 195.61 373 0.984917 0.173026<0 525.694>
LayerCount: 2
Fore
SplineSet
57.609375 490 m 0
 116.609375 747 324.609375 1005 578.609375 1005 c 0
 832.609375 1005 920.609375 747 861.609375 490 c 1
 195.609375 373 l 1
 192.609375 225 259.609375 122 377.609375 122 c 0
 537.609375 122 650.609375 214 745.609375 352 c 1
 802.609375 234 l 2
 738.609375 140 594.609375 -25 340.609375 -25 c 0
 86.609375 -25 -1.390625 233 57.609375 490 c 0
217.609375 517 m 1
 729.609375 606 l 1
 732.609375 754 665.609375 857 547.609375 857 c 0
 406.609375 857 270.609375 711 217.609375 517 c 1
EndSplineSet
EndChar

StartChar: f
Encoding: 102 102 31
Width: 856
VWidth: 2457
Flags: HW
LayerCount: 2
Fore
SplineSet
839 1474 m 1
 763 1327 l 1
 658 1327 l 2
 616 1327 554 1240 534 1153 c 2
 494 980 l 1
 683 980 l 1
 649 833 l 1
 460 833 l 1
 166 -443 l 1
 13 -443 l 1
 307 833 l 1
 181 833 l 1
 215 980 l 1
 341 980 l 1
 379 1145 l 2
 411 1282 498 1474 690 1474 c 2
 839 1474 l 1
EndSplineSet
EndChar

StartChar: g
Encoding: 103 103 32
Width: 1093
VWidth: 2948
Flags: HW
LayerCount: 2
Fore
SplineSet
948 980 m 1xda
 1057 980 l 1xda
 816 -63 l 2
 756 -324 558 -443 324 -443 c 0
 90 -443 13 -222 13 -222 c 1
 139 -148 l 1
 139 -148 189 -295 357 -295 c 0
 525 -295 627 -222 666 -51 c 2
 717 169 l 1
 650 54 556 -25 417 -25 c 0
 162 -25 74 233 133 490 c 0
 192 747 400 1005 655 1005 c 0xec
 797 1005 854 922 866 802 c 1
 948 980 l 1xda
791 490 m 0xec
 839 697 770 857 623 857 c 0
 476 857 334 697 286 490 c 0
 238 283 307 122 454 122 c 0
 601 122 743 283 791 490 c 0xec
EndSplineSet
EndChar

StartChar: h
Encoding: 104 104 33
Width: 956
VWidth: 2457
Flags: HW
LayerCount: 2
Fore
SplineSet
176 0 m 1
 23 0 l 1
 364 1474 l 1
 517 1474 l 1
 372 847 l 1
 431 944 509 1005 620 1005 c 0
 832 1005 933 794 874 537 c 2
 749 0 l 1
 597 0 l 1
 720 533 l 2
 768 742 689 857 584 857 c 0
 479 857 347 742 299 533 c 2
 176 0 l 1
EndSplineSet
EndChar

StartChar: i
Encoding: 105 105 34
Width: 535
VWidth: 2457
Flags: HW
HStem: -0 21G<23 180.612> 1277 197<363 471>
VStem: 23 493
DStem2: 23 -0 176 -0 0.224763 0.974413<34.3887 1059.09 1345.02 1512.7>
LayerCount: 2
Fore
SplineSet
23 0 m 1
 261 1032 l 1
 414 1032 l 1
 176 0 l 1
 23 0 l 1
318 1277 m 1
 363 1474 l 1
 516 1474 l 1
 471 1277 l 1
 318 1277 l 1
EndSplineSet
EndChar

StartChar: j
Encoding: 106 106 35
Width: 847
VWidth: 2457
Flags: HW
LayerCount: 2
Fore
SplineSet
630 1277 m 1
 675 1474 l 1
 828 1474 l 1
 783 1277 l 1
 630 1277 l 1
13 -394 m 1
 89 -246 l 1
 194 -246 l 2
 236 -246 295 -173 312 -99 c 2
 573 1032 l 1
 726 1032 l 1
 465 -99 l 2
 437 -222 354 -394 162 -394 c 2
 13 -394 l 1
EndSplineSet
EndChar

StartChar: k
Encoding: 107 107 36
Width: 993
VWidth: 2457
Flags: HW
LayerCount: 2
Fore
SplineSet
23 0 m 1
 364 1474 l 1
 517 1474 l 1
 318 614 l 1
 448 728 l 1
 450 732 l 1
 451 731 l 1
 793 1032 l 1
 982 1032 l 1
 517 616 l 1
 869 0 l 1
 680 0 l 1
 398 510 l 1
 267 393 l 1
 176 0 l 1
 23 0 l 1
EndSplineSet
EndChar

StartChar: l
Encoding: 108 108 37
Width: 535
VWidth: 2457
Flags: HW
LayerCount: 2
Fore
SplineSet
23 0 m 1
 364 1474 l 1
 517 1474 l 1
 176 0 l 1
 23 0 l 1
EndSplineSet
EndChar

StartChar: m
Encoding: 109 109 38
Width: 1546
VWidth: 2457
Flags: HW
LayerCount: 2
Fore
SplineSet
1206 1005 m 0xce
 1419 1005 1518 794 1459 537 c 2
 1335 0 l 1
 1183 0 l 1
 1306 533 l 2
 1354 742 1275 857 1170 857 c 0
 1065 857 933 742 885 533 c 2
 762 0 l 1
 609 0 l 1
 732 533 l 2
 780 742 702 857 597 857 c 0
 492 857 360 742 312 533 c 2
 188 0 l 1
 35 0 l 1xd6
 262 980 l 1
 371 980 l 1xae
 370 824 l 1
 430 934 513 1005 633 1005 c 0
 788 1005 882 890 898 726 c 1
 959 890 1051 1005 1206 1005 c 0xce
EndSplineSet
EndChar

StartChar: n
Encoding: 110 110 39
Width: 973
VWidth: 2457
Flags: HW
HStem: -0 21G<35 192.653 609 766.618> 857 148<487.821 692.39> 960 20G<257.367 371>
VStem: 262 109<918.109 980>
DStem2: 35 -0 188 -0 0.225658 0.974207<34.5257 804.103> 609 -0 762 -0 0.224992 0.974361<34.4238 745.456>
LayerCount: 2
Fore
SplineSet
370 824 m 1xb0
 430 934 512 1005 633 1005 c 0
 845 1005 945 794 886 537 c 2
 762 0 l 1
 609 0 l 1
 732 533 l 2
 780 742 702 857 597 857 c 0xd0
 492 857 360 742 312 533 c 2
 188 0 l 1
 35 0 l 1
 262 980 l 1
 371 980 l 1
 370 824 l 1xb0
EndSplineSet
EndChar

StartChar: o
Encoding: 111 111 40
Width: 951
VWidth: 2457
Flags: HW
HStem: -25 147<264.707 507.396> 857 148<417.589 660.278>
LayerCount: 2
Fore
SplineSet
57.4921875 490 m 0
 116.4921875 747 325.4921875 1005 581.4921875 1005 c 0
 837.4921875 1005 926.4921875 747 867.4921875 490 c 0
 808.4921875 233 599.4921875 -25 343.4921875 -25 c 0
 87.4921875 -25 -1.5078125 233 57.4921875 490 c 0
547.4921875 857 m 0
 400.4921875 857 258.4921875 697 210.4921875 490 c 0
 162.4921875 283 230.4921875 122 377.4921875 122 c 0
 524.4921875 122 666.4921875 283 714.4921875 490 c 0
 762.4921875 697 694.4921875 857 547.4921875 857 c 0
EndSplineSet
EndChar

StartChar: p
Encoding: 112 112 41
Width: 1131
VWidth: 2457
Flags: HW
LayerCount: 2
Fore
SplineSet
460 980 m 1xac
 460 802 l 1
 527 922 622 1005 764 1005 c 0
 1018 1005 1107 747 1048 490 c 0
 989 233 780 -25 526 -25 c 0
 387 -25 330 54 316 169 c 1
 175 -443 l 1
 22 -443 l 1xd4
 351 980 l 1
 460 980 l 1xac
391 490 m 0
 343 283 411 122 558 122 c 0
 705 122 847 283 895 490 c 0
 943 697 875 857 728 857 c 0
 581 857 439 697 391 490 c 0
EndSplineSet
EndChar

StartChar: q
Encoding: 113 113 42
Width: 1016
VWidth: 2457
Flags: HW
LayerCount: 2
Fore
SplineSet
870.6015625 980 m 1xb4
 979.6015625 980 l 1xb4
 651.6015625 -443 l 1
 498.6015625 -443 l 1
 639.6015625 169 l 1
 572.6015625 54 479.6015625 -25 340.6015625 -25 c 0
 85.6015625 -25 -2.3984375 233 56.6015625 490 c 0
 115.6015625 747 323.6015625 1005 578.6015625 1005 c 0xd8
 720.6015625 1005 777.6015625 922 789.6015625 802 c 1
 870.6015625 980 l 1xb4
713.6015625 490 m 0xd8
 761.6015625 697 693.6015625 857 546.6015625 857 c 0
 399.6015625 857 257.6015625 697 209.6015625 490 c 0
 161.6015625 283 229.6015625 122 376.6015625 122 c 0
 523.6015625 122 665.6015625 283 713.6015625 490 c 0xd8
EndSplineSet
EndChar

StartChar: r
Encoding: 114 114 43
Width: 795
VWidth: 2457
Flags: HW
LayerCount: 2
Fore
SplineSet
371 980 m 1xa8
 370 802 l 1
 437 922 532 1005 673 1005 c 0
 695 1005 715 1003 734 999 c 2
 771 792 l 1
 740 833 695 857 639 857 c 0
 492 857 349 695 301 486 c 2
 188 0 l 1
 35 0 l 1xd0
 262 980 l 1
 371 980 l 1xa8
EndSplineSet
EndChar

StartChar: s
Encoding: 115 115 44
Width: 900
VWidth: 2457
Flags: HW
HStem: -25 147<236.511 543.888> 857 148<420.911 677.655>
LayerCount: 2
Fore
SplineSet
195 726 m 0
 210 791 277 1005 580 1005 c 0
 815 1005 861 834 861 834 c 1
 742 696 l 1
 742 696 723 857 547 857 c 0
 449 857 361 783 346 718 c 0
 331 653 387 596 484 579 c 0
 581 562 828 503 776 276 c 0
 744 137 646 -25 343 -25 c 0
 112 -25 19 145 19 145 c 1
 137 283 l 1
 137 283 211 122 375 122 c 0
 525 122 603 188 625 285 c 0
 647 382 526 432 450 447 c 0
 374 462 143 499 195 726 c 0
EndSplineSet
EndChar

StartChar: t
Encoding: 116 116 45
Width: 604
VWidth: 2457
Flags: HW
HStem: -0 147<235.983 386.846> 833 147<110.846 202.846 389.846 544.846>
DStem2: 74.8463 277 228.846 284 0.224148 0.974555<-69.3104 570.544 755.719 1026.11>
LayerCount: 2
Fore
SplineSet
394.846679688 0 m 1
 244.846679688 0 l 2
 52.8466796875 0 47.8466796875 161 74.8466796875 277 c 2
 202.846679688 833 l 1
 76.8466796875 833 l 1
 110.846679688 980 l 1
 236.846679688 980 l 1
 304.846679688 1277 l 1
 457.846679688 1277 l 1
 389.846679688 980 l 1
 578.846679688 980 l 1
 544.846679688 833 l 1
 355.846679688 833 l 1
 228.846679688 284 l 2
 212.846679688 215 238.846679688 147 280.846679688 147 c 2
 386.846679688 147 l 1
 394.846679688 0 l 1
EndSplineSet
EndChar

StartChar: u
Encoding: 117 117 46
Width: 941
VWidth: 2457
Flags: HW
HStem: -25 147<253.316 458.001> -0 21G<574.822 688.434> 960 20G<179.212 336.822 752.207 909.822>
VStem: 574.822 109<0 62.165>
DStem2: 59.8219 442 213.822 447 0.224595 0.974452<-159.815 552.105> 633.822 447 683.822 -0 0.224714 0.974425<-222.653 547.008>
LayerCount: 2
Fore
SplineSet
575.822265625 155 m 1x70
 515.822265625 45 433.822265625 -25 312.822265625 -25 c 0
 99.822265625 -25 0.822265625 185 59.822265625 442 c 2
 183.822265625 980 l 1
 336.822265625 980 l 1
 213.822265625 447 l 2
 165.822265625 238 243.822265625 122 348.822265625 122 c 0xb0
 453.822265625 122 585.822265625 238 633.822265625 447 c 2
 756.822265625 980 l 1
 909.822265625 980 l 1
 683.822265625 0 l 1
 574.822265625 0 l 1
 575.822265625 155 l 1x70
EndSplineSet
EndChar

StartChar: v
Encoding: 118 118 47
Width: 886
VWidth: 2457
Flags: HW
LayerCount: 2
Fore
SplineSet
238 980 m 1
 304 245 l 1
 710 980 l 1
 868 980 l 1
 326 0 l 1
 169 0 l 1
 80 980 l 1
 238 980 l 1
EndSplineSet
EndChar

StartChar: w
Encoding: 119 119 48
Width: 1516
VWidth: 2457
Flags: HW
LayerCount: 2
Fore
SplineSet
80 980 m 1
 238 980 l 1
 304 245 l 1
 710 980 l 1
 868 980 l 1
 935 245 l 1
 1341 980 l 1
 1498 980 l 1
 957 0 l 1
 799 0 l 1
 733 735 l 1
 326 0 l 1
 169 0 l 1
 80 980 l 1
EndSplineSet
EndChar

StartChar: x
Encoding: 120 120 49
Width: 973
VWidth: 2457
Flags: HW
LayerCount: 2
Fore
SplineSet
453 339 m 1
 185 0 l 1
 17 0 l 1
 404 490 l 1
 244 980 l 1
 412 980 l 1
 523 641 l 1
 790 980 l 1
 958 980 l 1
 572 490 l 1
 732 0 l 1
 564 0 l 1
 453 339 l 1
EndSplineSet
EndChar

StartChar: y
Encoding: 121 121 50
Width: 1137
VWidth: 2457
Flags: HW
HStem: -443 148<89 261.829> 960 20G<331 490.727 949.988 1119>
DStem2: 489 980 331 980 0.0867166 -0.996233<0 743.759> 332 -154 488 -158 0.484925 0.874556<-178.633 168.904 450.869 1296.76>
LayerCount: 2
Fore
SplineSet
331 980 m 1
 489 980 l 1
 553 239 l 1
 961 980 l 1
 1119 980 l 1
 488 -158 l 2
 424 -264 316 -443 160 -443 c 2
 13 -443 l 1
 89 -295 l 1
 194 -295 l 2
 236 -295 295 -225 332 -154 c 2
 417 -8 l 1
 331 980 l 1
EndSplineSet
EndChar

StartChar: z
Encoding: 122 122 51
Width: 939
VWidth: 2457
Flags: HW
HStem: -0 172<269 692> 808 172<246 668>
DStem2: 48 122 269 172 0.670517 0.741894<185.279 924.66>
LayerCount: 2
Fore
SplineSet
206 808 m 1
 246 980 l 1
 918 980 l 1
 890 857 l 1
 269 172 l 1
 731 172 l 1
 692 0 l 1
 19 0 l 1
 48 122 l 1
 668 808 l 1
 206 808 l 1
EndSplineSet
EndChar

StartChar: comma
Encoding: 44 44 52
Width: 566
VWidth: 2948
Flags: HW
LayerCount: 2
Fore
SplineSet
282 235 m 1
 447 235 l 1
 448 239 413 88 413 88 c 2
 345 -207 111 -266 111 -266 c 1
 77 -178 l 1
 77 -178 200 -118 248 88 c 2
 248 88 283 239 282 235 c 1
EndSplineSet
EndChar

StartChar: period
Encoding: 46 46 54
Width: 415
VWidth: 2457
Flags: HW
LayerCount: 2
Fore
SplineSet
130.015625 196 m 1
 290.015625 196 l 1
 291.015625 200 244.015625 -6 245.015625 0 c 1
 85.015625 0 l 1
 84.015625 -6 131.015625 200 130.015625 196 c 1
EndSplineSet
EndChar

StartChar: exclam
Encoding: 33 33 55
Width: 565
VWidth: 2457
Flags: HW
LayerCount: 2
Fore
SplineSet
68.015625 196 m 5
 228.015625 196 l 5
 229.015625 200 182.015625 -6 183.015625 0 c 5
 23.015625 0 l 5
 22.015625 -6 69.015625 200 68.015625 196 c 5
363.015625 1474 m 5
 523.015625 1474 l 5
 528.015625 1494 278.015625 413 285.015625 442 c 5
 125.015625 442 l 5
 118.015625 413 368.015625 1494 363.015625 1474 c 5
EndSplineSet
EndChar

StartChar: dollar
Encoding: 36 36 56
Width: 1313
VWidth: 2457
Flags: HW
LayerCount: 2
Fore
SplineSet
803 1622 m 1
 940 1622 l 1
 905 1471 l 1
 1190 1447 1272 1277 1272 1277 c 1
 1146 1130 l 1
 1146 1130 1077 1292 871 1322 c 1
 750 799 l 2
 914 769 1184 702 1113 393 c 0
 1065 187 949 19 566 1 c 1
 531 -148 l 1
 394 -148 l 1
 429 2 l 1
 143 26 17 196 17 196 c 1
 142 344 l 1
 142 344 265 183 464 152 c 1
 584 676 l 2
 441 706 197 780 267 1081 c 0
 289 1177 387 1443 768 1472 c 1
 803 1622 l 1
734 1322 m 1
 605 1306 463 1240 426 1081 c 0
 389 921 499 857 619 825 c 1
 734 1322 l 1
715 649 m 1
 600 148 l 1
 782 155 909 201 953 393 c 0
 994 572 834 623 715 649 c 1
EndSplineSet
EndChar

StartChar: numbersign
Encoding: 35 35 57
Width: 1289
VWidth: 2457
Flags: HW
LayerCount: 2
Fore
SplineSet
32 0 m 1
 196 393 l 1
 31 393 l 1
 65 540 l 1
 257 540 l 1
 442 983 l 1
 236 983 l 1
 270 1130 l 1
 503 1130 l 1
 646 1474 l 1
 806 1474 l 1
 663 1130 l 1
 914 1130 l 1
 1058 1474 l 1
 1218 1474 l 1
 1074 1130 l 1
 1253 1130 l 1
 1219 983 l 1
 1013 983 l 1
 829 540 l 1
 1048 540 l 1
 1014 393 l 1
 767 393 l 1
 603 0 l 1
 443 0 l 1
 607 393 l 1
 356 393 l 1
 192 0 l 1
 32 0 l 1
417 540 m 1
 669 540 l 1
 853 983 l 1
 602 983 l 1
 417 540 l 1
EndSplineSet
EndChar

StartChar: percent
Encoding: 37 37 58
Width: 1342
VWidth: 2457
Flags: HW
LayerCount: 2
Fore
SplineSet
645 319 m 0xb3c0
 696 540 838 663 1021 663 c 0
 1204 663 1290 540 1239 319 c 0
 1188 98 1045 -25 862 -25 c 0
 679 -25 594 98 645 319 c 0xb3c0
987 516 m 0
 918 516 833 442 805 319 c 0
 777 196 827 122 896 122 c 0
 965 122 1051 196 1079 319 c 0
 1107 442 1056 516 987 516 c 0
106 1155 m 0
 157 1376 300 1499 483 1499 c 0x3bc0
 666 1499 751 1376 700 1155 c 0
 649 934 507 811 324 811 c 0
 141 811 55 934 106 1155 c 0
449 1351 m 0
 380 1351 294 1278 266 1155 c 0
 238 1032 289 958 358 958 c 0
 427 958 512 1032 540 1155 c 0
 568 1278 518 1351 449 1351 c 0
1300 1474 m 1x77c0
 228 0 l 1
 45 0 l 1
 1117 1474 l 1
 1300 1474 l 1x77c0
EndSplineSet
EndChar

StartChar: ampersand
Encoding: 38 38 59
Width: 1163
VWidth: 2457
Flags: HW
LayerCount: 2
Fore
SplineSet
1028.87988281 1130 m 0xae
 991.879882812 968 816.879882812 850 636.879882812 744 c 1
 847.879882812 358 l 1
 905.879882812 436 952.879882812 532 982.879882812 638 c 1
 1110.87988281 540 l 2
 1063.87988281 416 997.879882812 308 921.879882812 220 c 2
 1041.87988281 0 l 1
 859.879882812 0 l 1x6e
 799.879882812 104 l 1
 693.879882812 22 576.879882812 -25 464.879882812 -25 c 0
 184.879882812 -25 -26.1201171875 125 35.8798828125 393 c 0xb6
 72.8798828125 552 240.879882812 669 417.879882812 773 c 1
 354.879882812 884 l 2
 320.879882812 971 318.879882812 1026 342.879882812 1130 c 0
 390.879882812 1336 564.879882812 1499 770.879882812 1499 c 0
 976.879882812 1499 1076.87988281 1336 1028.87988281 1130 c 0xae
195.879882812 393 m 0xb6
 160.879882812 240 294.879882812 147 504.879882812 147 c 0
 580.879882812 147 656.879882812 178 726.879882812 232 c 2
 484.879882812 656 l 2
 339.879882812 571 217.879882812 490 195.879882812 393 c 0xb6
868.879882812 1130 m 0
 892.879882812 1233 845.879882812 1327 731.879882812 1327 c 0
 617.879882812 1327 526.879882812 1233 502.879882812 1130 c 0x2e
 485.879882812 1058 497.879882812 1007 560.879882812 884 c 2
 572.879882812 863 l 2
 720.879882812 949 845.879882812 1031 868.879882812 1130 c 0
EndSplineSet
EndChar

StartChar: parenleft
Encoding: 40 40 60
Width: 720
VWidth: 2457
Flags: HW
LayerCount: 2
Fore
SplineSet
87.056640625 688 m 0
 257.056640625 1425 680.056640625 1671 680.056640625 1671 c 1
 703.056640625 1572 l 1
 703.056640625 1572 389.056640625 1302 247.056640625 688 c 0
 105.056640625 74 295.056640625 -197 295.056640625 -197 c 1
 226.056640625 -295 l 1
 226.056640625 -295 -82.943359375 -49 87.056640625 688 c 0
EndSplineSet
EndChar

StartChar: parenright
Encoding: 41 41 61
Width: 746
VWidth: 2457
Flags: HW
LayerCount: 2
Fore
SplineSet
632 688 m 0
 462 -49 40 -295 40 -295 c 1
 17 -197 l 1
 17 -197 330 74 472 688 c 0
 614 1302 425 1572 425 1572 c 1
 494 1671 l 1
 494 1671 802 1425 632 688 c 0
EndSplineSet
EndChar

StartChar: slash
Encoding: 47 47 62
Width: 1087
VWidth: 2457
Flags: HW
LayerCount: 2
Fore
SplineSet
1066 1572 m 1
 200 -197 l 1
 17 -197 l 1
 883 1572 l 1
 1066 1572 l 1
EndSplineSet
EndChar

StartChar: braceleft
Encoding: 123 123 63
Width: 794
VWidth: 2457
Flags: HW
LayerCount: 2
Fore
SplineSet
395 1425 m 2
 423 1548 509 1720 715 1720 c 2
 783 1720 l 1
 703 1572 l 1
 681 1572 l 2
 635 1572 572 1499 555 1425 c 2
 430 884 l 2
 419 835 345 712 208 712 c 1
 345 712 362 589 351 540 c 2
 226 0 l 2
 209 -74 237 -148 283 -148 c 2
 306 -148 l 1
 318 -295 l 1
 249 -295 l 2
 43 -295 38 -123 66 0 c 2
 66 0 156 393 179 491 c 0
 202 589 122 638 31 638 c 1
 48 712 l 1
 65 786 l 1
 156 786 259 835 282 933 c 0
 305 1031 395 1425 395 1425 c 2
EndSplineSet
EndChar

StartChar: braceright
Encoding: 125 125 64
Width: 807
VWidth: 2457
Flags: HW
LayerCount: 2
Fore
SplineSet
732 1425 m 2
 732 1425 642 1031 619 933 c 0
 596 835 677 786 768 786 c 1
 751 712 l 1
 734 638 l 1
 643 638 540 589 517 491 c 0
 494 393 403 0 403 0 c 2
 375 -123 290 -295 84 -295 c 2
 15 -295 l 1
 95 -148 l 1
 118 -148 l 2
 164 -148 226 -74 243 0 c 2
 368 540 l 2
 379 589 454 712 591 712 c 1
 454 712 436 835 447 884 c 2
 572 1425 l 2
 589 1499 561 1572 515 1572 c 2
 492 1572 l 1
 480 1720 l 1
 549 1720 l 2
 755 1720 760 1548 732 1425 c 2
EndSplineSet
EndChar

StartChar: bracketleft
Encoding: 91 91 65
Width: 908
VWidth: 2457
Flags: HW
LayerCount: 2
Fore
SplineSet
484 1720 m 1xe0
 895 1720 l 1
 861 1572 l 1xe0
 610 1572 l 1
 213 -148 l 1xd0
 464 -148 l 1
 430 -295 l 1
 19 -295 l 1
 484 1720 l 1xe0
EndSplineSet
EndChar

StartChar: bracketright
Encoding: 93 93 66
Width: 917
VWidth: 2457
Flags: HW
LayerCount: 2
Fore
SplineSet
894 1720 m 1xe0
 428 -295 l 1
 17 -295 l 1
 51 -148 l 1xe0
 302 -148 l 1
 699 1572 l 1xd0
 448 1572 l 1
 482 1720 l 1
 894 1720 l 1xe0
EndSplineSet
EndChar

StartChar: question
Encoding: 63 63 67
Width: 883
VWidth: 2457
Flags: HW
LayerCount: 2
Fore
SplineSet
148 196 m 1
 308 196 l 1
 309 200 262 -6 263 0 c 1
 103 0 l 1
 102 -6 149 200 148 196 c 1
350 368 m 1
 190 368 l 1
 241 589 l 2
 267 700 357 756 447 811 c 0
 537 866 623 970 649 1081 c 0
 683 1228 649 1327 478 1327 c 0
 325 1327 200 1204 149 1081 c 1
 55 1179 l 1
 161 1383 366 1499 520 1499 c 0
 726 1499 877 1376 809 1081 c 0
 767 898 643 766 538 702 c 0
 529 697 520 691 511 686 c 0
 457 654 409 625 401 589 c 2
 350 368 l 1
EndSplineSet
EndChar

StartChar: quotedblleft
Encoding: 256 8220 68
Width: 747
VWidth: 2457
Flags: HW
LayerCount: 2
Fore
SplineSet
247.025390625 1155 m 1
 110.025390625 1155 l 1
 109.025390625 1151 138.025390625 1278 138.025390625 1278 c 2
 195.025390625 1524 389.025390625 1572 389.025390625 1572 c 1
 418.025390625 1499 l 1
 418.025390625 1499 316.025390625 1450 276.025390625 1278 c 2
 276.025390625 1278 246.025390625 1151 247.025390625 1155 c 1
521.025390625 1155 m 1
 384.025390625 1155 l 1
 383.025390625 1151 413.025390625 1278 413.025390625 1278 c 2
 470.025390625 1524 664.025390625 1572 664.025390625 1572 c 1
 692.025390625 1499 l 1
 692.025390625 1499 590.025390625 1450 550.025390625 1278 c 2
 550.025390625 1278 520.025390625 1151 521.025390625 1155 c 1
EndSplineSet
EndChar

StartChar: quotedblright
Encoding: 181 8221 69
Width: 743
VWidth: 2457
Flags: HW
LayerCount: 2
Fore
SplineSet
544 1572 m 1
 681 1572 l 1
 682 1576 653 1450 653 1450 c 2
 596 1204 402 1155 402 1155 c 1
 373 1228 l 1
 373 1228 475 1278 515 1450 c 2
 515 1450 545 1576 544 1572 c 1
270 1572 m 1
 407 1572 l 1
 408 1576 378 1450 378 1450 c 2
 321 1204 127 1155 127 1155 c 1
 99 1228 l 1
 99 1228 201 1278 241 1450 c 2
 241 1450 271 1576 270 1572 c 1
EndSplineSet
EndChar

StartChar: quoteleft
Encoding: 257 8216 70
Width: 472
VWidth: 2457
Flags: HW
LayerCount: 2
Fore
SplineSet
246.024414062 1155 m 1
 109.024414062 1155 l 1
 108.024414062 1151 138.024414062 1278 138.024414062 1278 c 2
 195.024414062 1524 389.024414062 1572 389.024414062 1572 c 1
 417.024414062 1499 l 1
 417.024414062 1499 315.024414062 1450 275.024414062 1278 c 2
 275.024414062 1278 245.024414062 1151 246.024414062 1155 c 1
EndSplineSet
EndChar

StartChar: quoteright
Encoding: 258 8217 71
Width: 468
VWidth: 2457
Flags: HW
LayerCount: 2
Fore
SplineSet
270 1572 m 1
 407 1572 l 1
 408 1576 378 1450 378 1450 c 2
 321 1204 127 1155 127 1155 c 1
 99 1228 l 1
 99 1228 201 1278 241 1450 c 2
 241 1450 271 1576 270 1572 c 1
EndSplineSet
EndChar

StartChar: quotedbl
Encoding: 34 34 72
Width: 672
VWidth: 0
Flags: HW
LayerCount: 2
Fore
SplineSet
195.185546875 1572 m 1
 332.185546875 1572 l 1
 333.185546875 1576 309.185546875 1474 309.185546875 1474 c 2
 264.185546875 1277 207.185546875 1179 207.185546875 1179 c 1
 138.185546875 1179 l 1
 138.185546875 1179 127.185546875 1277 172.185546875 1474 c 2
 172.185546875 1474 196.185546875 1576 195.185546875 1572 c 1
469.185546875 1572 m 1
 606.185546875 1572 l 1
 607.185546875 1576 583.185546875 1474 583.185546875 1474 c 2
 538.185546875 1277 481.185546875 1179 481.185546875 1179 c 1
 412.185546875 1179 l 1
 412.185546875 1179 401.185546875 1277 446.185546875 1474 c 2
 446.185546875 1474 470.185546875 1576 469.185546875 1572 c 1
EndSplineSet
EndChar

StartChar: quotesingle
Encoding: 39 39 73
Width: 398
VWidth: 2457
Flags: HW
LayerCount: 2
Fore
SplineSet
195.185546875 1572 m 1
 332.185546875 1572 l 1
 333.185546875 1576 309.185546875 1474 309.185546875 1474 c 2
 264.185546875 1277 207.185546875 1179 207.185546875 1179 c 1
 138.185546875 1179 l 1
 138.185546875 1179 127.185546875 1277 172.185546875 1474 c 2
 172.185546875 1474 196.185546875 1576 195.185546875 1572 c 1
EndSplineSet
EndChar

StartChar: semicolon
Encoding: 59 59 74
Width: 650
VWidth: 2457
Flags: HW
LayerCount: 2
Fore
SplineSet
238 196 m 1
 375 196 l 1
 376 200 347 73 347 73 c 2
 290 -173 96 -222 96 -222 c 1
 67 -148 l 1
 67 -148 170 -99 210 73 c 2
 210 73 239 200 238 196 c 1
420 1032 m 1
 580 1032 l 1
 581 1036 533 829 534 835 c 1
 374 835 l 1
 373 829 421 1036 420 1032 c 1
EndSplineSet
EndChar

StartChar: colon
Encoding: 58 58 75
Width: 544
VWidth: 2457
Flags: HW
LayerCount: 2
Fore
SplineSet
118.015625 196 m 1
 278.015625 196 l 1
 279.015625 200 232.015625 -6 233.015625 0 c 1
 73.015625 0 l 1
 72.015625 -6 119.015625 200 118.015625 196 c 1
311.015625 1032 m 1
 471.015625 1032 l 1
 472.015625 1036 425.015625 829 426.015625 835 c 1
 266.015625 835 l 1
 265.015625 829 312.015625 1036 311.015625 1032 c 1
EndSplineSet
EndChar

StartChar: asterisk
Encoding: 42 42 76
Width: 807
VWidth: 2457
Flags: HW
LayerCount: 2
Fore
SplineSet
554 1474 m 1
 481 1227 l 1
 703 1366 l 1
 742 1238 l 1
 510 1130 l 1
 692 1022 l 1
 594 894 l 1
 436 1033 l 1
 395 786 l 1
 258 786 l 1
 331 1033 l 1
 109 894 l 1
 70 1022 l 1
 302 1130 l 1
 120 1238 l 1
 218 1366 l 1
 376 1227 l 1
 417 1474 l 1
 554 1474 l 1
EndSplineSet
EndChar

StartChar: plus
Encoding: 43 43 77
Width: 982
VWidth: 2457
Flags: HW
LayerCount: 2
Fore
SplineSet
504 958 m 1
 664 958 l 1
 587 626 l 1
 896 626 l 1
 856 454 l 1
 547 454 l 1
 471 122 l 1
 311 122 l 1
 387 454 l 1
 79 454 l 1
 118 626 l 1
 427 626 l 1
 504 958 l 1
EndSplineSet
EndChar

StartChar: equal
Encoding: 61 61 78
Width: 1242
VWidth: 2457
Flags: HW
LayerCount: 2
Fore
SplineSet
238 823 m 1
 1152 823 l 1
 1113 651 l 1
 198 651 l 1
 238 823 l 1
125 331 m 1
 1039 331 l 1
 999 159 l 1
 85 159 l 1
 125 331 l 1
EndSplineSet
EndChar

StartChar: asciicircum
Encoding: 94 94 79
Width: 698
VWidth: 2457
Flags: HW
LayerCount: 2
Fore
SplineSet
63 983 m 1
 383 1474 l 1
 543 1474 l 1
 635 983 l 1
 509 933 l 1
 423 1302 l 1
 166 933 l 1
 63 983 l 1
EndSplineSet
EndChar

StartChar: hyphen
Encoding: 45 45 80
Width: 1049
VWidth: 2457
Flags: HW
LayerCount: 2
Fore
SplineSet
153 626 m 1
 930 626 l 1
 890 454 l 1
 113 454 l 1
 153 626 l 1
EndSplineSet
EndChar

StartChar: less
Encoding: 60 60 81
Width: 1174
VWidth: 2948
Flags: HW
LayerCount: 2
Fore
SplineSet
1098 1081 m 1
 1109 933 l 1
 259 491 l 1
 905 49 l 1
 825 -99 l 1
 70 393 l 1
 116 589 l 1
 1098 1081 l 1
EndSplineSet
EndChar

StartChar: greater
Encoding: 62 62 82
Width: 1190
VWidth: 2948
Flags: HW
LayerCount: 2
Fore
SplineSet
354 1081 m 1
 1109 589 l 1
 1064 393 l 1
 82 -99 l 1
 70 49 l 1
 920 491 l 1
 274 933 l 1
 354 1081 l 1
EndSplineSet
EndChar

StartChar: underscore
Encoding: 95 95 83
Width: 1193
VWidth: 2457
Flags: HW
LayerCount: 2
Fore
SplineSet
144 -13 m 1
 1058 -13 l 1
 1018 -185 l 1
 104 -185 l 1
 144 -13 l 1
EndSplineSet
EndChar

StartChar: bar
Encoding: 124 124 84
Width: 736
VWidth: 2457
Flags: HW
LayerCount: 2
Fore
SplineSet
722 1916 m 1
 177 -443 l 1
 17 -443 l 1
 562 1916 l 1
 722 1916 l 1
EndSplineSet
EndChar

StartChar: zero
Encoding: 48 48 85
Width: 1167
VWidth: 2457
Flags: HW
LayerCount: 2
Fore
SplineSet
71.7373046875 737 m 0
 145.737304688 1056 383.737304688 1499 749.737304688 1499 c 0
 1115.73730469 1499 1150.73730469 1056 1076.73730469 737 c 0
 1002.73730469 418 764.737304688 -25 398.737304688 -25 c 0
 32.7373046875 -25 -2.2626953125 418 71.7373046875 737 c 0
715.737304688 1351 m 0
 441.737304688 1351 276.737304688 934 231.737304688 737 c 0
 186.737304688 540 158.737304688 122 432.737304688 122 c 0
 706.737304688 122 871.737304688 540 916.737304688 737 c 0
 961.737304688 934 989.737304688 1351 715.737304688 1351 c 0
EndSplineSet
EndChar

StartChar: one
Encoding: 49 49 86
Width: 654
VWidth: 2457
Flags: HW
LayerCount: 2
Fore
SplineSet
104 0 m 1
 400 1277 l 1
 85 1204 l 1
 68 1327 l 1
 491 1474 l 1
 605 1474 l 1
 264 0 l 1
 104 0 l 1
EndSplineSet
EndChar

StartChar: two
Encoding: 50 50 87
Width: 1210
VWidth: 2457
Flags: HW
LayerCount: 2
Fore
SplineSet
917 0 m 1
 25 0 l 1
 65 172 l 2
 116 393 272 572 601 712 c 0
 628 723 655 735 681 745 c 0
 838 808 933 863 972 1032 c 0
 1017 1229 926 1327 766 1327 c 0
 620 1327 497 1245 438 1081 c 1
 309 1160 l 1
 414 1376 612 1499 805 1499 c 0
 1034 1499 1200 1327 1132 1032 c 0
 1069 758 899 675 667 586 c 0
 649 579 631 572 613 565 c 0
 453 502 276 393 225 172 c 1
 956 172 l 1
 917 0 l 1
EndSplineSet
EndChar

StartChar: three
Encoding: 51 51 88
Width: 1093
VWidth: 2457
Flags: HW
LayerCount: 2
Fore
SplineSet
854.3515625 1056 m 0xf0
 899.3515625 1253 802.3515625 1327 665.3515625 1327 c 0
 528.3515625 1327 413.3515625 1228 362.3515625 1105 c 1
 242.3515625 1179 l 2
 327.3515625 1357 522.3515625 1499 705.3515625 1499 c 0
 979.3515625 1499 1071.3515625 1302 1014.3515625 1056 c 0xf0
 957.3515625 810 780.3515625 737 734.3515625 737 c 1
 757.3515625 737 l 2
 803.3515625 737 997.3515625 687 935.3515625 417 c 0
 873.3515625 147 605.3515625 -25 376.3515625 -25 c 0
 177.3515625 -25 12.3515625 111 21.3515625 319 c 1
 169.3515625 368 l 1
 175.3515625 196 331.3515625 147 415.3515625 147 c 0
 506.3515625 147 724.3515625 196 775.3515625 417 c 0xe8
 826.3515625 638 603.3515625 663 512.3515625 663 c 2
 306.3515625 663 l 1
 386.3515625 811 l 1
 546.3515625 811 l 2
 615.3515625 811 809.3515625 859 854.3515625 1056 c 0xf0
EndSplineSet
EndChar

StartChar: four
Encoding: 52 52 89
Width: 1093
VWidth: 2457
Flags: HW
LayerCount: 2
Fore
SplineSet
55 466 m 1
 882 1474 l 1
 1042 1474 l 1
 820 516 l 1
 980 516 l 1
 895 344 l 1
 781 344 l 1
 701 0 l 1
 541 0 l 1
 621 344 l 1
 26 344 l 1
 55 466 l 1
660 516 m 1
 814 1179 l 1
 272 516 l 1
 660 516 l 1
EndSplineSet
EndChar

StartChar: five
Encoding: 53 53 90
Width: 1157
VWidth: 2457
Flags: HW
LayerCount: 2
Fore
SplineSet
1042 1302 m 1
 448 1302 l 1
 306 884 l 1
 306 884 425 1007 608 1007 c 0
 791 1007 1054 860 969 491 c 0
 884 122 622 -25 393 -25 c 0
 204 -25 36 152 21 344 c 1
 175 417 l 1
 183 294 274 147 433 147 c 0
 616 147 764 294 809 491 c 0
 854 688 752 835 569 835 c 0
 340 835 232 663 232 663 c 1
 106 712 l 1
 350 1474 l 1
 1128 1474 l 1
 1042 1302 l 1
EndSplineSet
EndChar

StartChar: six
Encoding: 54 54 91
Width: 1183
VWidth: 2457
Flags: HW
LayerCount: 2
Fore
SplineSet
781.884765625 1499 m 0
 968.884765625 1499 1091.88476562 1383 1135.88476562 1228 c 2
 988.884765625 1130 l 1
 965.884765625 1253 874.884765625 1327 741.884765625 1327 c 0
 405.884765625 1327 302.884765625 1007 228.884765625 688 c 1
 308.884765625 835 473.884765625 958 656.884765625 958 c 0
 930.884765625 958 1030.88476562 697 979.884765625 476 c 0
 939.884765625 304 772.884765625 -25 406.884765625 -25 c 0
 40.884765625 -25 -5.115234375 369 68.884765625 688 c 0
 142.884765625 1007 324.884765625 1499 781.884765625 1499 c 0
823.884765625 491 m 2
 823.884765625 491 896.884765625 811 599.884765625 811 c 0
 436.884765625 811 332.884765625 710 272.884765625 619 c 0
 212.884765625 529 196.884765625 424 214.884765625 334 c 0
 238.884765625 216 302.884765625 122 440.884765625 122 c 0
 714.884765625 122 812.884765625 442 823.884765625 491 c 2
EndSplineSet
EndChar

StartChar: seven
Encoding: 55 55 92
Width: 1229
VWidth: 2457
Flags: HW
LayerCount: 2
Fore
SplineSet
23 0 m 1
 941 1302 l 1
 187 1302 l 1
 226 1474 l 1
 1186 1474 l 1
 1158 1351 l 1
 206 0 l 1
 23 0 l 1
EndSplineSet
EndChar

StartChar: eight
Encoding: 56 56 93
Width: 1177
VWidth: 2457
Flags: HW
LayerCount: 2
Fore
SplineSet
37.6416015625 417 m 0xf2
 88.6416015625 638 346.641601562 860 620.641601562 860 c 0
 894.641601562 860 1059.64160156 687 997.641601562 417 c 0
 935.641601562 147 689.641601562 -25 415.641601562 -25 c 0
 141.641601562 -25 -13.3583984375 196 37.6416015625 417 c 0xf2
585.641601562 712 m 0
 402.641601562 712 234.641601562 577 200.641601562 430 c 0
 166.641601562 283 272.641601562 147 455.641601562 147 c 0
 638.641601562 147 806.641601562 283 840.641601562 430 c 0
 874.641601562 577 768.641601562 712 585.641601562 712 c 0
242.641601562 1105 m 0xec
 282.641601562 1277 493.641601562 1499 767.641601562 1499 c 0
 1041.64160156 1499 1151.64160156 1277 1111.64160156 1105 c 0
 1071.64160156 933 859.641601562 712 585.641601562 712 c 0
 311.641601562 712 202.641601562 933 242.641601562 1105 c 0xec
620.641601562 860 m 0
 803.641601562 860 925.641601562 995 948.641601562 1093 c 0
 971.641601562 1191 910.641601562 1327 727.641601562 1327 c 0
 544.641601562 1327 422.641601562 1191 399.641601562 1093 c 0
 376.641601562 995 437.641601562 860 620.641601562 860 c 0
EndSplineSet
EndChar

StartChar: nine
Encoding: 57 57 94
Width: 1174
VWidth: 2457
Flags: HW
LayerCount: 2
Fore
SplineSet
372 -25 m 0
 185 -25 62 90 18 245 c 2
 165 344 l 1
 188 221 278 147 411 147 c 0
 747 147 851 467 925 786 c 1
 845 639 680 516 497 516 c 0
 223 516 123 777 174 998 c 0
 214 1170 380 1499 746 1499 c 0
 1112 1499 1159 1105 1085 786 c 0
 1011 467 829 -25 372 -25 c 0
330 983 m 2
 330 983 256 663 553 663 c 0
 716 663 820 763 880 854 c 0
 940 944 957 1049 939 1139 c 0
 915 1257 850 1351 712 1351 c 0
 438 1351 341 1032 330 983 c 2
EndSplineSet
EndChar

StartChar: asciitilde
Encoding: 126 126 95
Width: 1199
VWidth: 2457
Flags: HW
LayerCount: 2
Fore
SplineSet
1115 1081 m 5x80
 1064 860 l 5
 1064 860 871 737 739 737 c 4x80
 607 737 541 884 453 884 c 4
 365 884 104 761 104 761 c 5
 155 983 l 5
 155 983 372 1105 504 1105 c 4x40
 636 1105 702 958 790 958 c 4
 878 958 1115 1081 1115 1081 c 5x80
EndSplineSet
EndChar

StartChar: grave
Encoding: 96 96 96
Width: 440
VWidth: 2457
Flags: HW
LayerCount: 2
Fore
SplineSet
220 1228 m 5
 117 1572 l 5
 299 1572 l 5
 357 1228 l 5
 220 1228 l 5
EndSplineSet
EndChar

StartChar: at
Encoding: 64 64 97
Width: 1749
VWidth: 2457
Flags: HW
LayerCount: 2
Fore
SplineSet
1393.71777344 1032 m 1xdec0
 1212.71777344 245 l 2xdec0
 1198.71777344 185 1218.71777344 122 1275.71777344 122 c 0
 1332.71777344 122 1463.71777344 245 1542.71777344 589 c 0
 1619.71777344 920 1496.71777344 1302 1067.71777344 1302 c 0
 638.717773438 1302 296.717773438 932 206.717773438 540 c 0
 116.717773438 148 207.717773438 -246 710.717773438 -246 c 0
 939.717773438 -246 1144.71777344 -148 1144.71777344 -148 c 1
 1161.71777344 -271 l 1
 1161.71777344 -271 962.717773438 -394 676.717773438 -394 c 0
 47.7177734375 -394 -35.2822265625 88 68.7177734375 540 c 0
 150.717773438 894 501.717773438 1450 1101.71777344 1450 c 0
 1701.71777344 1450 1750.71777344 890 1680.71777344 589 c 0
 1588.71777344 189 1424.71777344 -25 1241.71777344 -25 c 0
 1012.71777344 -25 1031.71777344 153 1052.71777344 245 c 2
 1188.71777344 835 l 1xdf40
 1279.71777344 1032 l 1
 1393.71777344 1032 l 1xdec0
406.717773438 516 m 0
 468.717773438 786 691.717773438 1056 965.717773438 1056 c 0
 1239.71777344 1056 1222.71777344 786 1160.71777344 516 c 0xef40
 1098.71777344 246 989.717773438 -25 715.717773438 -25 c 0
 441.717773438 -25 344.717773438 246 406.717773438 516 c 0
931.717773438 909 m 0
 771.717773438 909 617.717773438 737 566.717773438 516 c 0
 515.717773438 295 589.717773438 122 749.717773438 122 c 0
 909.717773438 122 1063.71777344 295 1114.71777344 516 c 0
 1165.71777344 737 1091.71777344 909 931.717773438 909 c 0
EndSplineSet
EndChar

StartChar: dieresis
Encoding: 259 168 99
Width: 748
VWidth: 2457
Flags: HW
LayerCount: 2
Fore
SplineSet
162.015625 1376 m 5
 322.015625 1376 l 5
 323.015625 1380 276.015625 1173 277.015625 1179 c 5
 117.015625 1179 l 5
 116.015625 1173 163.015625 1380 162.015625 1376 c 5
505.015625 1376 m 5
 665.015625 1376 l 5
 666.015625 1380 619.015625 1173 620.015625 1179 c 5
 460.015625 1179 l 5
 459.015625 1173 506.015625 1380 505.015625 1376 c 5
EndSplineSet
EndChar

StartChar: exclamdown
Encoding: 260 161 100
Width: 566
VWidth: 2457
Flags: HW
LayerCount: 2
Fore
SplineSet
480.07421875 1277 m 5
 320.07421875 1277 l 5
 319.07421875 1273 366.07421875 1480 365.07421875 1474 c 5
 525.07421875 1474 l 5
 526.07421875 1480 479.07421875 1273 480.07421875 1277 c 5
185.07421875 0 m 5
 25.07421875 0 l 5
 20.07421875 -20 270.07421875 1060 263.07421875 1031 c 5
 423.07421875 1031 l 5
 430.07421875 1060 180.07421875 -20 185.07421875 0 c 5
EndSplineSet
EndChar

StartChar: sterling
Encoding: 261 163 101
Width: 1254
VWidth: 2457
Flags: HW
LayerCount: 2
Fore
SplineSet
257 417 m 2
 285 540 l 1
 148 540 l 1
 188 712 l 1
 325 712 l 1
 388 983 l 2
 456 1278 689 1499 895 1499 c 0
 1049 1499 1187 1334 1199 1130 c 1
 1059 1032 l 1
 1065 1155 1009 1327 856 1327 c 0
 685 1327 582 1130 548 983 c 2
 485 712 l 1
 828 712 l 1
 788 540 l 1
 445 540 l 1
 417 417 l 2
 396 325 345 219 302 172 c 1
 932 172 l 1
 892 0 l 1
 24 0 l 1
 63 172 l 1
 109 172 l 2
 155 172 229 294 257 417 c 2
EndSplineSet
EndChar

StartChar: section
Encoding: 167 167 102
Width: 1162
VWidth: 2457
Flags: HW
LayerCount: 2
Fore
SplineSet
993 565 m 0xd4
 981 512 936 365 767 301 c 1
 823 249 858 176 834 73 c 0
 800 -74 690 -271 366 -271 c 0
 119 -271 17 -99 17 -99 c 1xd8
 143 49 l 1
 143 49 223 -123 400 -123 c 0
 562 -123 650 -30 674 73 c 0
 698 176 573 254 491 270 c 0
 488 271 485 271 481 272 c 0
 265 339 95 432 148 663 c 0xe8
 160 716 205 863 374 927 c 1
 318 979 283 1052 307 1155 c 0
 341 1302 451 1499 775 1499 c 0
 1022 1499 1124 1327 1124 1327 c 1xd8
 998 1179 l 1
 998 1179 918 1351 741 1351 c 0
 579 1351 491 1258 467 1155 c 0
 443 1052 568 974 650 958 c 0
 653 957 656 957 660 956 c 0
 876 889 1046 796 993 565 c 0xd4
582 400 m 0
 626 385 679 380 724 415 c 0
 781 459 823 523 833 565 c 0
 849 634 846 744 616 811 c 0
 615 811 614 812 613 812 c 0
 598 816 580 821 560 828 c 0
 516 843 464 848 418 813 c 0
 361 770 318 705 308 663 c 0xe4
 292 594 295 484 525 417 c 0
 526 417 528 416 529 416 c 0
 544 412 562 407 582 400 c 0
EndSplineSet
EndChar

StartChar: copyright
Encoding: 169 169 103
Width: 1544
VWidth: 2457
Flags: HW
LayerCount: 2
Fore
SplineSet
220.65234375 737 m 0
 295.65234375 1063 601.65234375 1327 904.65234375 1327 c 0
 1207.65234375 1327 1392.65234375 1063 1317.65234375 737 c 0
 1242.65234375 411 935.65234375 147 632.65234375 147 c 0
 329.65234375 147 145.65234375 411 220.65234375 737 c 0
60.65234375 737 m 0
 -36.34765625 316 201.65234375 -25 592.65234375 -25 c 0
 983.65234375 -25 1380.65234375 316 1477.65234375 737 c 0
 1574.65234375 1158 1335.65234375 1499 944.65234375 1499 c 0
 553.65234375 1499 157.65234375 1158 60.65234375 737 c 0
903.65234375 1179 m 0
 1003.65234375 1179 1071.65234375 1118 1115.65234375 1053 c 2
 1019.65234375 933 l 1
 993.65234375 992 938.65234375 1032 869.65234375 1032 c 0
 739.65234375 1032 620.65234375 918 578.65234375 737 c 0
 536.65234375 556 603.65234375 442 733.65234375 442 c 0
 802.65234375 442 876.65234375 481 929.65234375 540 c 1
 969.65234375 421 l 2
 895.65234375 356 799.65234375 294 699.65234375 294 c 0
 476.65234375 294 363.65234375 467 425.65234375 737 c 0
 487.65234375 1007 680.65234375 1179 903.65234375 1179 c 0
EndSplineSet
EndChar

StartChar: registered
Encoding: 262 174 104
Width: 1544
VWidth: 2457
Flags: HW
LayerCount: 2
Fore
SplineSet
220.65234375 737 m 0
 295.65234375 1063 601.65234375 1327 904.65234375 1327 c 0
 1207.65234375 1327 1392.65234375 1063 1317.65234375 737 c 0
 1242.65234375 411 935.65234375 147 632.65234375 147 c 0
 329.65234375 147 145.65234375 411 220.65234375 737 c 0
60.65234375 737 m 0
 -36.34765625 316 201.65234375 -25 592.65234375 -25 c 0
 983.65234375 -25 1380.65234375 316 1477.65234375 737 c 0
 1574.65234375 1158 1335.65234375 1499 944.65234375 1499 c 0
 553.65234375 1499 157.65234375 1158 60.65234375 737 c 0
613.65234375 1155 m 1
 707.65234375 1155 l 1
 908.65234375 1155 l 2
 1042.65234375 1155 1134.65234375 1036 1102.65234375 897 c 0
 1078.65234375 792 973.65234375 701 877.65234375 664 c 1
 1015.65234375 319 l 1
 855.65234375 319 l 1
 721.65234375 646 l 1
 656.65234375 646 l 1
 580.65234375 319 l 1
 420.65234375 319 l 1
 613.65234375 1155 l 1
688.65234375 786 m 1
 777.65234375 786 l 1
 778.65234375 786 l 2
 819.65234375 786 916.65234375 786 942.65234375 897 c 0
 968.65234375 1008 883.65234375 1007 829.65234375 1007 c 2
 828.65234375 1007 l 1
 739.65234375 1007 l 1
 688.65234375 786 l 1
EndSplineSet
EndChar

StartChar: brokenbar
Encoding: 263 166 105
Width: 736
VWidth: 2457
Flags: HW
LayerCount: 2
Fore
SplineSet
722 1916 m 1
 484 884 l 1
 324 884 l 1
 562 1916 l 1
 722 1916 l 1
17 -443 m 1
 256 589 l 1
 416 589 l 1
 177 -443 l 1
 17 -443 l 1
EndSplineSet
EndChar

StartChar: acute
Encoding: 264 180 106
Width: 552
VWidth: 2457
Flags: HW
LayerCount: 2
Fore
SplineSet
239 1228 m 5
 101 1228 l 5
 318 1572 l 5
 501 1572 l 5
 239 1228 l 5
EndSplineSet
EndChar

StartChar: questiondown
Encoding: 265 191 107
Width: 859
VWidth: 2457
Flags: HW
LayerCount: 2
Fore
SplineSet
710.509765625 1302 m 1
 550.509765625 1302 l 1
 549.509765625 1298 597.509765625 1505 596.509765625 1499 c 1
 756.509765625 1499 l 1
 757.509765625 1505 709.509765625 1298 710.509765625 1302 c 1
508.509765625 1130 m 1
 668.509765625 1130 l 1
 617.509765625 909 l 2
 591.509765625 798 502.509765625 743 412.509765625 688 c 0
 322.509765625 633 235.509765625 528 209.509765625 417 c 0
 175.509765625 270 210.509765625 172 381.509765625 172 c 0
 534.509765625 172 658.509765625 294 709.509765625 417 c 1
 803.509765625 319 l 1
 697.509765625 115 492.509765625 0 338.509765625 0 c 0
 132.509765625 0 -18.490234375 122 49.509765625 417 c 0
 91.509765625 600 215.509765625 733 320.509765625 797 c 0
 329.509765625 802 338.509765625 808 347.509765625 813 c 0
 401.509765625 845 449.509765625 873 457.509765625 909 c 2
 508.509765625 1130 l 1
EndSplineSet
EndChar

StartChar: NameMe.260
Encoding: 266 768 109
Width: 440
VWidth: 2457
Flags: HW
HStem: 1228 344<220 299>
VStem: 117 240
LayerCount: 2
Fore
SplineSet
220 1228 m 5
 117 1572 l 5
 299 1572 l 5
 357 1228 l 5
 220 1228 l 5
EndSplineSet
EndChar

StartChar: NameMe.261
Encoding: 267 769 110
Width: 552
VWidth: 2457
Flags: HW
HStem: 1228 344
VStem: 101 400
LayerCount: 2
Fore
SplineSet
239 1228 m 5
 101 1228 l 5
 318 1572 l 5
 501 1572 l 5
 239 1228 l 5
EndSplineSet
EndChar

StartChar: NameMe.262
Encoding: 269 770 114
Width: 747
VWidth: 2457
Flags: HW
HStem: 1130 541<373.659 411>
VStem: 92 571
DStem2: 571 1671 451 1499 0.183806 -0.982963<147.013 500.528>
LayerCount: 2
Fore
SplineSet
92 1179 m 5
 411 1671 l 5
 571 1671 l 5
 663 1179 l 5
 537 1130 l 5
 451 1499 l 5
 194 1130 l 5
 92 1179 l 5
EndSplineSet
EndChar

StartChar: NameMe.263
Encoding: 270 771 115
Width: 798
VWidth: 2948
Flags: HW
HStem: 1228 172<497.924 621.767> 1376 172<231.974 356.076>
VStem: 121 611
LayerCount: 2
Fore
SplineSet
732 1523 m 1xa0
 692 1351 l 1
 692 1351 614 1228 518 1228 c 0xa0
 413 1228 352 1376 284 1376 c 0
 222 1376 121 1253 121 1253 c 1
 161 1425 l 1
 161 1425 240 1548 336 1548 c 0x60
 441 1548 502 1400 570 1400 c 0
 632 1400 732 1523 732 1523 c 1xa0
EndSplineSet
EndChar

StartChar: NameMe.264
Encoding: 271 776 116
Width: 748
VWidth: 2457
Flags: HW
HStem: 1179 197<159.335 280.267 502.335 623.267>
LayerCount: 2
Fore
SplineSet
162.015625 1376 m 5
 322.015625 1376 l 5
 323.015625 1380 276.015625 1173 277.015625 1179 c 5
 117.015625 1179 l 5
 116.015625 1173 163.015625 1380 162.015625 1376 c 5
505.015625 1376 m 5
 665.015625 1376 l 5
 666.015625 1380 619.015625 1173 620.015625 1179 c 5
 460.015625 1179 l 5
 459.015625 1173 506.015625 1380 505.015625 1376 c 5
EndSplineSet
EndChar

StartChar: NameMe.265
Encoding: 273 778 118
Width: 715
VWidth: 2457
Flags: HW
HStem: 1204 147<301.634 456.687> 1548 147<326.501 481.554>
VStem: 140.094 503
LayerCount: 2
Fore
SplineSet
140.09375 1450 m 0
 174.09375 1597 311.09375 1695 448.09375 1695 c 0
 585.09375 1695 677.09375 1597 643.09375 1450 c 0
 609.09375 1303 472.09375 1204 335.09375 1204 c 0
 198.09375 1204 106.09375 1303 140.09375 1450 c 0
414.09375 1548 m 0
 345.09375 1548 311.09375 1499 300.09375 1450 c 0
 289.09375 1401 300.09375 1351 369.09375 1351 c 0
 438.09375 1351 472.09375 1401 483.09375 1450 c 0
 494.09375 1499 483.09375 1548 414.09375 1548 c 0
EndSplineSet
EndChar

StartChar: degree
Encoding: 176 176 163
Width: 795
VWidth: 2457
Flags: HW
LayerCount: 2
Fore
SplineSet
114.5078125 1204 m 0
 165.5078125 1425 308.5078125 1548 491.5078125 1548 c 0
 674.5078125 1548 759.5078125 1425 708.5078125 1204 c 0
 657.5078125 983 515.5078125 860 332.5078125 860 c 0
 149.5078125 860 63.5078125 983 114.5078125 1204 c 0
457.5078125 1400 m 0
 388.5078125 1400 302.5078125 1327 274.5078125 1204 c 0
 246.5078125 1081 297.5078125 1007 366.5078125 1007 c 0
 435.5078125 1007 520.5078125 1081 548.5078125 1204 c 0
 576.5078125 1327 526.5078125 1400 457.5078125 1400 c 0
EndSplineSet
EndChar

StartChar: NameMe.281
Encoding: 281 774 165
Width: 706
VWidth: 2457
Flags: HW
HStem: 1204 147<297.634 452.687>
VStem: 136.094 160<1355.21 1450> 479.094 160<1378.72 1450>
LayerCount: 2
Fore
SplineSet
331.09375 1204 m 0
 194.09375 1204 102.09375 1303 136.09375 1450 c 1
 296.09375 1450 l 1
 285.09375 1401 296.09375 1351 365.09375 1351 c 0
 434.09375 1351 468.09375 1401 479.09375 1450 c 1
 639.09375 1450 l 1
 605.09375 1303 468.09375 1204 331.09375 1204 c 0
EndSplineSet
EndChar

StartChar: NameMe.282
Encoding: 282 780 167
Width: 743
VWidth: 2457
Flags: HW
HStem: 1130 541<215 251.38>
VStem: 123 571
DStem2: 248 1671 123 1622 0.183806 -0.982963<25.1894 378.704> 335 1302 375 1130 0.544029 0.839066<0 448.887>
LayerCount: 2
Fore
SplineSet
694 1622 m 5
 375 1130 l 5
 215 1130 l 5
 123 1622 l 5
 248 1671 l 5
 335 1302 l 5
 591 1671 l 5
 694 1622 l 5
EndSplineSet
EndChar

StartChar: NameMe.283
Encoding: 283 779 189
Width: 871
VWidth: 2457
Flags: HW
HStem: 1228 344
LayerCount: 2
Fore
SplineSet
238 1228 m 1
 101 1228 l 1
 317 1572 l 1
 500 1572 l 1
 238 1228 l 1
558 1228 m 1
 420 1228 l 1
 637 1572 l 1
 820 1572 l 1
 558 1228 l 1
EndSplineSet
EndChar

StartChar: NameMe.284
Encoding: 284 775 190
Width: 405
VWidth: 2457
Flags: HW
HStem: 1179 197<159.335 280.267>
LayerCount: 2
Fore
SplineSet
162.015625 1376 m 1
 322.015625 1376 l 1
 323.015625 1380 276.015625 1173 277.015625 1179 c 1
 117.015625 1179 l 1
 116.015625 1173 163.015625 1380 162.015625 1376 c 1
EndSplineSet
EndChar

StartChar: NameMe.285
Encoding: 285 806 191
Width: 519
VWidth: 2457
Flags: HW
HStem: -344 196<187.269 307.345>
LayerCount: 2
Fore
SplineSet
190.015625 -148 m 1
 350.015625 -148 l 1
 351.015625 -144 303.015625 -350 304.015625 -344 c 1
 144.015625 -344 l 1
 143.015625 -350 191.015625 -144 190.015625 -148 c 1
EndSplineSet
EndChar

StartChar: NameMe.286
Encoding: 286 808 200
Width: 538
VWidth: 2457
Flags: HW
HStem: -405 147<230.098 340.786> -20 20G<256.786 410.786>
VStem: 105.786 305
LayerCount: 2
Fore
SplineSet
374.786132812 -258 m 1
 340.786132812 -405 l 2
 174.786132812 -430 77.7861328125 -356 105.786132812 -233 c 0
 133.786132812 -110 216.786132812 -49 296.786132812 0 c 2
 410.786132812 0 l 1
 193.786132812 -147 151.786132812 -332 374.786132812 -258 c 1
EndSplineSet
EndChar

StartChar: NameMe.287
Encoding: 287 807 201
Width: 504
Flags: HW
HStem: -349 349
VStem: 99 262
LayerCount: 2
Fore
SplineSet
128 -226 m 1
 285 -287 323 -123 199 0 c 1
 294 0 l 2
 342 -41 385 -103 361 -205 c 0
 337 -307 228 -369 99 -349 c 2
 128 -226 l 1
EndSplineSet
EndChar

StartChar: Aogonek
Encoding: 161 260 202
Width: 1385
Flags: HW
LayerCount: 2
Fore
SplineSet
1219 -258 m 1
 1185 -406 l 2
 1019 -431 922 -357 950 -234 c 0
 978 -111 1037 -50 1117 -1 c 2
 1277 -1 l 1
 1060 -148 996 -332 1219 -258 c 1
EndSplineSet
Refer: 0 65 N 1 0 0 1 -46 0 2
EndChar

